<?xml version="1.0" encoding="UTF-8"?><svg id="Icon_export" xmlns="http://www.w3.org/2000/svg" viewBox="0 0 48 48"><path d="m2,9c0-.552.448-1,1-1h42c.552,0,1,.448,1,1v3H2v-3Z" style="fill:#1474c4;"/><path d="m2,12h44v27c0,.552-.448,1-1,1H3c-.552,0-1-.448-1-1V12Z" style="fill:#95caeb;"/><path d="m3.5,10c0-.276.224-.5.5-.5s.5.224.5.5-.224.5-.5.5-.5-.224-.5-.5Zm4.5.5c.276,0,.5-.224.5-.5s-.224-.5-.5-.5-.5.224-.5.5.224.5.5.5Zm-2,0c.276,0,.5-.224.5-.5s-.224-.5-.5-.5-.5.224-.5.5.224.5.5.5Z" style="fill:#fff;"/><path d="m6,15h12c.552,0,1,.448,1,1v21H5v-21c0-.552.448-1,1-1Z" style="fill:#001b41;"/><path d="m16.5,19H7.5c-.276,0-.5-.224-.5-.5s.224-.5.5-.5h9c.276,0,.5.224.5.5s-.224.5-.5.5Zm.5,3.5c0-.276-.224-.5-.5-.5H7.5c-.276,0-.5.224-.5.5s.224.5.5.5h9c.276,0,.5-.224.5-.5Zm0,4c0-.276-.224-.5-.5-.5H7.5c-.276,0-.5.224-.5.5s.224.5.5.5h9c.276,0,.5-.224.5-.5Zm0,4c0-.276-.224-.5-.5-.5H7.5c-.276,0-.5.224-.5.5s.224.5.5.5h9c.276,0,.5-.224.5-.5Z" style="fill:#95caeb;"/><rect x="28" y="15" width="9" height="8" rx="1" ry="1" style="fill:#1474c4;"/><rect x="22" y="29" width="9" height="8" rx="1" ry="1" style="fill:#1474c4;"/><rect x="34" y="29" width="9" height="8" rx="1" ry="1" style="fill:#1474c4;"/><path d="m27,29v-2.5c0-.275.225-.5.5-.5h10c.275,0,.5.225.5.5v2.5h1v-2.5c0-.827-.673-1.5-1.5-1.5h-4.5v-2h-1v2h-4.5c-.827,0-1.5.673-1.5,1.5v2.5h1Z" style="fill:#001b41;"/></svg>